<?xml version="1.0" encoding="UTF-8"?>
<svg version="1.1" xmlns="http://www.w3.org/2000/svg" width="378" height="134">
<path d="M0 0 C0.825 0.03158203 1.65 0.06316406 2.5 0.09570312 C7.83066348 0.38762041 11.92684334 1.21549783 16.625 3.8125 C19.11635057 11.28655172 17.56035566 20.11251863 16.625 27.8125 C17.841875 27.3175 19.05875 26.8225 20.3125 26.3125 C25.5332507 24.52798267 30.33919286 24.65038832 35.8046875 24.90234375 C38.83431516 25.05423691 38.83431516 25.05423691 41.625 22.8125 C49.22906672 22.67548979 58.51050233 23.40401356 65.1875 27.3125 C66.625 28.8125 66.625 28.8125 66.625 30.8125 C67.470625 30.131875 68.31625 29.45125 69.1875 28.75 C74.95803147 25.33796376 82.25294121 27.058022 88.625 27.8125 C88.74230469 27.20535156 88.85960937 26.59820312 88.98046875 25.97265625 C90.31057143 21.51479695 94.80109409 18.26108513 98.625 15.8125 C101.2651367 14.94927059 103.81084208 14.21381898 106.5 13.5625 C107.19480469 13.376875 107.88960938 13.19125 108.60546875 13 C112.90930505 11.93011979 116.25196156 11.58543847 120.625 12.8125 C122.625 14.8125 122.625 14.8125 122.85546875 17.16796875 C122.77491255 22.47735476 122.55506067 27.58090873 121.625 32.8125 C122.25148438 32.84988281 122.87796875 32.88726562 123.5234375 32.92578125 C124.34070313 32.99152344 125.15796875 33.05726562 126 33.125 C126.81210937 33.18300781 127.62421875 33.24101563 128.4609375 33.30078125 C130.625 33.8125 130.625 33.8125 132.625 36.8125 C133.80522751 44.89016098 131.66749573 53.22599817 128.90234375 60.7890625 C128.4936959 63.77046515 129.64428733 65.98614057 130.625 68.8125 C133.10939611 83.93626134 133.10939611 83.93626134 129.25 89.4375 C123.17456948 95.85440671 116.36184901 99.90432504 107.5 100.25 C100.6642734 100.24234521 96.7146154 98.23139089 91.625 93.8125 C91.06683594 94.29976563 90.50867188 94.78703125 89.93359375 95.2890625 C84.26989888 99.02652612 75.98066131 96.87809809 69.6875 95.6875 C63.109375 94.0703125 63.109375 94.0703125 60.8125 90.625 C60.420625 89.696875 60.02875 88.76875 59.625 87.8125 C58.92375 88.451875 58.2225 89.09125 57.5 89.75 C53.20559885 92.83076604 49.50893579 93.06714164 44.390625 92.2890625 C42.88350869 92.01551957 41.37826939 91.73144976 39.875 91.4375 C39.10800781 91.29828125 38.34101563 91.1590625 37.55078125 91.015625 C31.94122024 89.97061012 31.94122024 89.97061012 29.625 88.8125 C29.295 87.8225 28.965 86.8325 28.625 85.8125 C23.345 85.1525 18.065 84.4925 12.625 83.8125 C12.068125 85.05 11.51125 86.2875 10.9375 87.5625 C9.20985597 91.40170896 7.19910706 93.55173944 3.625 95.8125 C-3.55336424 96.89010314 -11.1650609 96.81446075 -17.375 92.8125 C-19.3125 90.125 -19.3125 90.125 -20.375 87.8125 C-21.365 88.3075 -21.365 88.3075 -22.375 88.8125 C-25.66113396 89.05123623 -28.95614583 88.99769014 -32.25 89 C-33.16136719 89.01224609 -34.07273438 89.02449219 -35.01171875 89.03710938 C-35.89214844 89.03904297 -36.77257812 89.04097656 -37.6796875 89.04296875 C-38.48390137 89.04707764 -39.28811523 89.05118652 -40.11669922 89.05541992 C-42.63264794 88.78478544 -44.22963002 88.13643389 -46.375 86.8125 C-47.73758026 84.56525943 -48.45546065 82.29525624 -49.375 79.8125 C-52.27471752 80.15364324 -53.90253773 80.36294832 -56.375 81.8125 C-57.97232015 84.29533715 -59.10875581 86.77314787 -60.234375 89.5 C-61.375 91.8125 -61.375 91.8125 -64.375 93.8125 C-71.07201683 94.75835862 -75.26475614 92.12058256 -80.8125 88.8125 C-81.63943359 88.33554688 -82.46636719 87.85859375 -83.31835938 87.3671875 C-85.34543112 86.19546973 -87.363436 85.01058025 -89.375 83.8125 C-89.82875 84.41964844 -90.2825 85.02679688 -90.75 85.65234375 C-95.78504398 92.34556328 -100.25928434 94.35811046 -108.375 95.8125 C-111.48619382 96.24211857 -114.29500638 96.51686444 -117.375 95.8125 C-119.74376426 93.56217395 -120.93347389 91.69555222 -122.375 88.8125 C-122.90867187 89.08964844 -123.44234375 89.36679688 -123.9921875 89.65234375 C-131.54172678 93.3226215 -138.34201709 95.06022948 -146.5 92.375 C-147.79936732 91.873687 -149.09440847 91.35999928 -150.375 90.8125 C-150.4678125 92.359375 -150.4678125 92.359375 -150.5625 93.9375 C-151.48336131 98.32930008 -153.12689425 100.8400751 -156.375 103.8125 C-158.73291588 105.25598399 -161.16005408 106.23577289 -163.75 107.1875 C-164.38421875 107.44660156 -165.0184375 107.70570312 -165.671875 107.97265625 C-170.02974356 109.65354841 -173.72739882 110.21168047 -178.375 109.8125 C-184.17257104 105.85318319 -186.49067718 98.99715374 -189.375 92.8125 C-190.01985791 91.4630751 -190.66572734 90.11413321 -191.3125 88.765625 C-191.9591828 87.4066539 -192.60502879 86.04728425 -193.25 84.6875 C-193.56050293 84.03604004 -193.87100586 83.38458008 -194.19091797 82.71337891 C-196.375 78.04519679 -196.375 78.04519679 -196.375 75.8125 C-197.035 75.8125 -197.695 75.8125 -198.375 75.8125 C-198.86419922 74.42224609 -198.86419922 74.42224609 -199.36328125 73.00390625 C-199.80027344 71.80636719 -200.23726562 70.60882813 -200.6875 69.375 C-201.11675781 68.18003906 -201.54601562 66.98507813 -201.98828125 65.75390625 C-202.44589844 64.78324219 -202.90351563 63.81257813 -203.375 62.8125 C-206.16117251 61.77698504 -206.16117251 61.77698504 -208.3125 61.5625 C-213.84860496 59.54937092 -216.87289705 51.77518331 -219.625 46.875 C-220.31335938 45.69647461 -220.31335938 45.69647461 -221.015625 44.49414062 C-223.90212333 39.36115624 -225.43889815 35.67188225 -223.80859375 29.7578125 C-217.6768279 18.55231098 -200.83332901 13.84078484 -189.390625 10.1640625 C-177.48636374 6.69925246 -164.69604673 6.51464256 -153.1875 11.4375 C-146.64526348 15.0397031 -142.59176255 20.20544693 -140.4375 27.3125 C-140.06157509 28.80719545 -139.69920058 30.30573923 -139.375 31.8125 C-138.055 31.8125 -136.735 31.8125 -135.375 31.8125 C-133.375 31.8125 -131.375 31.8125 -129.375 31.8125 C-129.42140625 30.94367187 -129.4678125 30.07484375 -129.515625 29.1796875 C-129.55171875 28.02726562 -129.5878125 26.87484375 -129.625 25.6875 C-129.67140625 24.55054687 -129.7178125 23.41359375 -129.765625 22.2421875 C-129.27965971 17.97541229 -128.17515451 16.05597461 -125.375 12.8125 C-123.01236913 11.33406148 -120.9611592 10.20988338 -118.4375 9.125 C-117.78088379 8.83318848 -117.12426758 8.54137695 -116.44775391 8.24072266 C-110.4131703 5.65530206 -103.97987094 3.08846954 -97.375 2.8125 C-92.79758652 4.96732696 -92.79758652 4.96732696 -91.375 7.8125 C-91.22495027 9.1859635 -91.12661994 10.5653526 -91.05859375 11.9453125 C-90.99575195 13.15380859 -90.99575195 13.15380859 -90.93164062 14.38671875 C-90.89232422 15.22847656 -90.85300781 16.07023437 -90.8125 16.9375 C-90.76931641 17.78699219 -90.72613281 18.63648437 -90.68164062 19.51171875 C-90.57545764 21.61178223 -90.47471503 23.71211948 -90.375 25.8125 C-89.715 25.1525 -89.055 24.4925 -88.375 23.8125 C-84.82224579 23.25520522 -82.42027361 23.11565093 -79.359375 25.15625 C-77.62594022 26.65010436 -75.97561499 28.17782937 -74.375 29.8125 C-72.25234507 28.76577796 -70.15571174 27.69278651 -68.078125 26.55859375 C-61.18205823 22.87995941 -55.23892188 20.60077197 -47.375 22.8125 C-47.63990234 21.72582031 -47.63990234 21.72582031 -47.91015625 20.6171875 C-48.38131071 17.77442361 -48.31309156 15.760656 -47.8125 12.9375 C-47.68746094 12.13570312 -47.56242188 11.33390625 -47.43359375 10.5078125 C-45.8576327 6.49521795 -43.84431873 3.42838168 -40.375 0.8125 C-37.17788773 -0.03750722 -34.21970842 0.09693666 -30.9375 0.3125 C-30.11701172 0.33570313 -29.29652344 0.35890625 -28.45117188 0.3828125 C-24.74612492 0.5129179 -21.24948418 0.83426126 -17.58984375 1.46875 C-14.45443142 2.05913773 -14.45443142 2.05913773 -12.0234375 0.86328125 C-8.01350072 -0.72768187 -4.25309212 -0.26005749 0 0 Z " fill="#204F85" transform="translate(232.375,11.1875)"/>
<path d="M0 0 C3.82634732 3.18862277 6.57902928 6.20984521 7.3359375 11.2265625 C7.53063567 23.18103033 2.55291509 30.25136792 -5.44140625 38.53125 C-8 41 -8 41 -11 43 C-10.28841621 49.76004598 -8.20419191 55.83284346 -5.99609375 62.23632812 C-5.72667969 63.04908203 -5.45726562 63.86183594 -5.1796875 64.69921875 C-4.92944824 65.42971436 -4.67920898 66.16020996 -4.42138672 66.9128418 C-3.93676829 69.31319112 -4.13779509 70.72058637 -5 73 C-6.70703125 74.08203125 -6.70703125 74.08203125 -8.8125 74.8125 C-9.49957031 75.06644531 -10.18664062 75.32039063 -10.89453125 75.58203125 C-13.48141294 76.09556806 -14.57021194 76.06645773 -17 75 C-18.68823242 72.3581543 -18.68823242 72.3581543 -20.35546875 68.82421875 C-20.65882141 68.19083588 -20.96217407 67.557453 -21.27471924 66.90487671 C-22.25972179 64.83876229 -23.22379203 62.76362105 -24.1875 60.6875 C-24.85644705 59.27285619 -25.5264537 57.85871295 -26.19750977 56.44506836 C-31.28086919 45.69877574 -36.22354426 34.88617691 -41 24 C-43.31 24.33 -45.62 24.66 -48 25 C-49.36992656 22.92562542 -50.72059546 20.84238538 -52.0625 18.75 C-52.45244141 18.16347656 -52.84238281 17.57695313 -53.24414062 16.97265625 C-56.0475646 12.55664326 -56.0475646 12.55664326 -55.82250977 9.92285156 C-54.77232987 7.46775602 -53.9095861 7.06830537 -51.4921875 6 C-50.76016113 5.67193359 -50.02813477 5.34386719 -49.27392578 5.00585938 C-48.08645752 4.50795898 -48.08645752 4.50795898 -46.875 4 C-46.06401855 3.65259766 -45.25303711 3.30519531 -44.41748047 2.94726562 C-30.09366945 -3.02776178 -14.46591745 -8.20177705 0 0 Z " fill="#F0CF1C" transform="translate(77,31)"/>
<path d="M0 0 C4.95 0 9.9 0 15 0 C18.96 10.23 22.92 20.46 27 31 C27.33 20.77 27.66 10.54 28 0 C33.61 0 39.22 0 45 0 C44.37141913 13.39008204 43.43180122 26.72064448 42.27050781 40.07446289 C41.99701373 43.22186635 41.72863686 46.36967699 41.4609375 49.51757812 C41.2867531 51.54690032 41.11228448 53.57619815 40.9375 55.60546875 C40.85830322 56.53264206 40.77910645 57.45981537 40.69750977 58.41508484 C40.24215436 63.62840849 39.6835771 68.81154398 39 74 C35.37 74 31.74 74 28 74 C27.71278076 73.18845459 27.42556152 72.37690918 27.12963867 71.54077148 C26.05236735 68.50040489 24.97302992 65.4607817 23.89233398 62.42163086 C23.42699957 61.11169916 22.96246501 59.80148301 22.4987793 58.4909668 C21.8281687 56.59607678 21.15434225 54.70232585 20.48046875 52.80859375 C20.07723389 51.67220459 19.67399902 50.53581543 19.25854492 49.36499023 C17.94497789 45.85288657 16.50256857 42.43471519 15 39 C14.94465088 39.70608398 14.88930176 40.41216797 14.83227539 41.13964844 C14.57916858 44.34338537 14.32089096 47.54668511 14.0625 50.75 C13.93198242 52.41675781 13.93198242 52.41675781 13.79882812 54.1171875 C13.66831055 55.72207031 13.66831055 55.72207031 13.53515625 57.359375 C13.456604 58.34389648 13.37805176 59.32841797 13.29711914 60.34277344 C13 63 13 63 12 67 C7.71 67 3.42 67 -1 67 C-1.05407567 64.41638482 -1.093707 61.83390745 -1.125 59.25 C-1.14175781 58.52039063 -1.15851563 57.79078125 -1.17578125 57.0390625 C-1.21072239 53.1955376 -1.17499684 50.25393228 1 47 C0.67 46.67 0.34 46.34 0 46 C-0.09295815 44.55710213 -0.11746513 43.10970215 -0.11352539 41.66381836 C-0.11344986 40.7429393 -0.11337433 39.82206024 -0.11329651 38.87327576 C-0.10813522 37.87224319 -0.10297394 36.87121063 -0.09765625 35.83984375 C-0.0962413 34.82024063 -0.09482635 33.80063751 -0.09336853 32.75013733 C-0.08775097 29.47922893 -0.0751955 26.20838787 -0.0625 22.9375 C-0.05748726 20.72591244 -0.05292396 18.51432382 -0.04882812 16.30273438 C-0.03777583 10.86846346 -0.02049944 5.43424316 0 0 Z " fill="#F0CE1C" transform="translate(197,20)"/>
<path d="M0 0 C0.33 10.56 0.66 21.12 1 32 C3.31 29.69 5.62 27.38 8 25 C10.6875 22.5 10.6875 22.5 13 21 C16.36704446 21.37261055 17.9742316 22.63156558 20.25 25.0625 C21.03117187 25.88427734 21.03117187 25.88427734 21.828125 26.72265625 C22.21484375 27.14417969 22.6015625 27.56570312 23 28 C21.44997253 31.88397689 18.99523379 34.02979619 15.875 36.75 C14.96492188 37.54921875 14.05484375 38.3484375 13.1171875 39.171875 C12.41851562 39.77515625 11.71984375 40.3784375 11 41 C12.25666401 44.76999203 13.31849724 44.94287725 16.75 46.75 C20.99762988 49.17205278 23.24095842 51.27827248 25.7734375 55.38671875 C27.93966631 58.23593052 30.827871 59.44503481 34 61 C34 63.31 34 65.62 34 68 C30.19639517 67.41717253 27.44035994 66.32564542 24.12890625 64.3828125 C23.22462891 63.85816406 22.32035156 63.33351562 21.38867188 62.79296875 C20.45603516 62.24253906 19.52339844 61.69210938 18.5625 61.125 C16.71047559 60.04283168 14.85763216 58.9620636 13.00390625 57.8828125 C12.18736572 57.40215332 11.3708252 56.92149414 10.52954102 56.42626953 C7.73930768 54.85300989 4.86503724 53.43251862 2 52 C1.67 57.61 1.34 63.22 1 69 C-4.445 69.99 -4.445 69.99 -10 71 C-10.0501123 69.88778076 -10.10022461 68.77556152 -10.15185547 67.62963867 C-10.34376699 63.4041037 -10.54320232 59.17894859 -10.74462891 54.95385742 C-10.82993551 53.14372798 -10.91334474 51.33350788 -10.99462891 49.52319336 C-11.56074482 36.95332336 -12.5420142 24.49842674 -14 12 C-15.65 12.33 -17.3 12.66 -19 13 C-19 10.69 -19 8.38 -19 6 C-16.39802798 4.99394407 -13.79370638 3.99497475 -11.1875 3 C-10.08051758 2.57074219 -10.08051758 2.57074219 -8.95117188 2.1328125 C-8.23896484 1.86210937 -7.52675781 1.59140625 -6.79296875 1.3125 C-6.1383667 1.06113281 -5.48376465 0.80976563 -4.80932617 0.55078125 C-3 0 -3 0 0 0 Z " fill="#F0CE1C" transform="translate(133,23)"/>
<path d="M0 0 C-0.66 5.94 -1.32 11.88 -2 18 C1.96 18.33 5.92 18.66 10 19 C9.125 28.75 9.125 28.75 8 31 C4.04 31 0.08 31 -4 31 C-5.65132432 37.39888173 -6.56512503 43.37620901 -6 50 C-4.8589957 51.36245892 -4.8589957 51.36245892 -1.8125 51.1875 C1.88687353 51.0055636 4.54368319 50.23684321 8 49 C8.27573092 51.10094974 8.51978976 53.20607635 8.75 55.3125 C8.88921875 56.48425781 9.0284375 57.65601563 9.171875 58.86328125 C9 62 9 62 7.12890625 63.875 C2.31610994 66.41827585 -2.72384213 66.7910115 -8.0546875 65.50390625 C-12.75394439 63.93453178 -15.83301267 61.93474184 -19 58 C-22.10792746 49.01061488 -19.82469308 38.04200589 -18 29 C-18.969375 29.020625 -19.93875 29.04125 -20.9375 29.0625 C-24 29 -24 29 -25 28 C-25.41221374 19.61832061 -25.41221374 19.61832061 -23 16 C-20.69 16.33 -18.38 16.66 -16 17 C-15.91363281 16.09636719 -15.82726562 15.19273438 -15.73828125 14.26171875 C-15.59777344 13.08222656 -15.45726562 11.90273438 -15.3125 10.6875 C-15.18488281 9.51574219 -15.05726563 8.34398437 -14.92578125 7.13671875 C-14 4 -14 4 -11.54296875 2.125 C-7.27672725 0.23763049 -4.81142854 0 0 0 Z " fill="#F0CE1C" transform="translate(347,32)"/>
<path d="M0 0 C3.65507986 2.12989029 6.16932178 4.69980801 8.4375 8.25 C9.99375525 15.85835901 9.42147845 21.81920791 5.625 28.66796875 C2.14491597 33.66222395 -2.89577326 38.69195141 -9 40 C-14.00131396 40.5313369 -17.78790136 40.58360305 -22.375 38.375 C-27.51291897 33.72640665 -29.57313446 29.55721287 -30.375 22.875 C-29.67724285 15.6648428 -26.43601887 9.94987729 -21.125 5.0625 C-14.4330789 -0.2186243 -8.3548106 -2.42343064 0 0 Z " fill="#EFCE1D" transform="translate(110,51)"/>
<path d="M0 0 C1.56324232 0.11534604 3.12559683 0.24275126 4.6875 0.375 C5.99267578 0.47941406 5.99267578 0.47941406 7.32421875 0.5859375 C10.24039302 1.0371995 12.40108809 1.58792453 15 3 C16.58203125 5.3125 16.58203125 5.3125 17.8125 8 C18.23144531 8.886875 18.65039062 9.77375 19.08203125 10.6875 C20 13 20 13 20 15 C21.0828125 13.948125 21.0828125 13.948125 22.1875 12.875 C22.65414063 12.42640625 23.12078125 11.9778125 23.6015625 11.515625 C25.26780771 9.80878317 25.26780771 9.80878317 27.0625 6.625 C30 4 30 4 32.9140625 3.7734375 C41.35785256 4.35785256 41.35785256 4.35785256 44 7 C43.33613281 7.85722656 42.67226563 8.71445312 41.98828125 9.59765625 C40.17127018 11.94583061 38.36606617 14.30257164 36.56640625 16.6640625 C35.12764884 18.54918614 33.673698 20.39045864 32.15234375 22.2109375 C30.56329776 24.07194493 30.56329776 24.07194493 29 27 C30.25664305 32.68071518 33.37953347 37.7330024 36.125 42.8125 C37.04601825 44.52640587 37.9653848 46.24120073 38.8828125 47.95703125 C39.28902832 48.70960205 39.69524414 49.46217285 40.11376953 50.23754883 C41 52 41 52 41 53 C38.91599266 52.96687272 36.83254234 52.89736131 34.75 52.8125 C33.58984375 52.77769531 32.4296875 52.74289063 31.234375 52.70703125 C27.14033117 51.81207722 26.22390697 50.46727314 24 47 C23.37351562 46.03513672 23.37351562 46.03513672 22.734375 45.05078125 C20 40.22222222 20 40.22222222 20 38 C18.91160226 38.88967344 17.82955392 39.78711574 16.75 40.6875 C16.1003125 41.22890625 15.450625 41.7703125 14.78125 42.328125 C12.79286594 44.04021491 12.79286594 44.04021491 11.25 46.9375 C9 49 9 49 6.41796875 49.12109375 C2.42652354 48.79152488 -1.19522928 48.26825691 -5 47 C-3.58567643 43.74777371 -1.89054838 41.72847068 0.6875 39.3125 C4.92768636 35.19634103 8.46698334 30.72298017 12 26 C10.56682448 22.93545818 9.12769376 19.87374907 7.6875 16.8125 C7.28337891 15.94818359 6.87925781 15.08386719 6.46289062 14.19335938 C4.82027121 10.70780111 3.19101632 7.31836054 1.20703125 4.01171875 C0 2 0 2 0 0 Z " fill="#EFCE1D" transform="translate(278,42)"/>
<path d="M0 0 C2.502052 1.297974 4.15520739 2.60176496 5.76953125 4.91796875 C5.42800022 8.67043767 3.65472152 10.32712732 0.953125 12.80859375 C0.18935547 13.51757812 -0.57441406 14.2265625 -1.36132812 14.95703125 C-2.16376953 15.68664062 -2.96621094 16.41625 -3.79296875 17.16796875 C-5.00243164 18.28558594 -5.00243164 18.28558594 -6.23632812 19.42578125 C-8.22771503 21.26398455 -10.22582925 23.09424424 -12.23046875 24.91796875 C-7.89253153 24.30923914 -5.67805901 23.56112128 -2.23046875 20.91796875 C-0.91046875 20.91796875 0.40953125 20.91796875 1.76953125 20.91796875 C4.01953125 23.16796875 4.01953125 23.16796875 5.76953125 25.91796875 C5.76953125 27.23796875 5.76953125 28.55796875 5.76953125 29.91796875 C-0.73616502 35.89528359 -8.7703251 37.38672435 -17.31640625 37.23828125 C-22.43053482 36.67613843 -25.56860342 34.6906251 -29.10546875 30.91796875 C-31.49112734 26.67679793 -31.62007649 22.74910474 -31.23046875 17.91796875 C-28.94099065 10.06655199 -25.73532728 3.66703775 -18.41796875 -0.45703125 C-12.01928271 -3.32623569 -6.36802031 -2.67532214 0 0 Z " fill="#EECD1D" transform="translate(271.23046875,46.08203125)"/>
<path d="M0 0 C1.96455114 1.05850538 3.26586792 2.30608415 4.76171875 3.94921875 C3.43484576 6.87097153 1.97016772 9.01464741 -0.2421875 11.33203125 C-0.81775391 11.94175781 -1.39332031 12.55148438 -1.98632812 13.1796875 C-2.58509766 13.80488281 -3.18386719 14.43007813 -3.80078125 15.07421875 C-4.99160452 16.32490158 -6.18050236 17.57742137 -7.3671875 18.83203125 C-7.8938501 19.38262207 -8.4205127 19.93321289 -8.96313477 20.50048828 C-10.34065929 21.94126364 -10.34065929 21.94126364 -11.23828125 23.94921875 C-6.12350665 23.48423924 -3.20875119 20.98546047 0.76171875 17.94921875 C3.07171875 20.25921875 5.38171875 22.56921875 7.76171875 24.94921875 C6.47718723 28.80281332 4.97740866 29.38529915 1.57421875 31.51171875 C0.63191406 32.11113281 -0.31039062 32.71054688 -1.28125 33.328125 C-7.22316771 36.58558319 -12.54800706 37.70728939 -19.23828125 36.94921875 C-24.51150278 35.12387284 -27.03519211 32.34202672 -30.23828125 27.94921875 C-32.05513398 22.49866057 -32.08371898 17.10315916 -29.67578125 11.82421875 C-23.02766607 0.05494064 -12.80043857 -4.90726753 0 0 Z " fill="#EFCE1D" transform="translate(188.23828125,43.05078125)"/>
<path d="M0 0 C2.46636095 2.25257966 3.99662993 4.52408488 5.59375 7.44921875 C6.06683594 8.29677734 6.53992188 9.14433594 7.02734375 10.01757812 C8.01407434 11.80651808 8.99580295 13.59822558 9.97265625 15.39257812 C10.44574219 16.23626953 10.91882812 17.07996094 11.40625 17.94921875 C12.04530273 19.11457153 12.04530273 19.11457153 12.69726562 20.3034668 C13.12716797 20.86332275 13.55707031 21.42317871 14 22 C14.99 22 15.98 22 17 22 C17.66 22 18.32 22 19 22 C19 20.68 19 19.36 19 18 C20.65 17.67 22.3 17.34 24 17 C24.67154933 18.28913487 25.33708859 19.58140204 26 20.875 C26.37125 21.59429687 26.7425 22.31359375 27.125 23.0546875 C28 25 28 25 28 27 C26 27 26 27 23.375 24.5 C22.59125 23.675 21.8075 22.85 21 22 C23.13080898 26.40739384 25.26305225 30.81409016 27.39648438 35.22021484 C28.11820888 36.71124658 28.8395777 38.20245055 29.56054688 39.69384766 C34.62567366 50.170737 39.77042534 60.60419681 45 71 C50.28345289 71.10990838 53.86366236 70.56464971 58.75 68.5 C64.72222222 66 64.72222222 66 68 66 C62.9271782 72.29729602 55.96606811 74.42428044 48.125 75.5625 C44.94081672 74.98934701 43.35215495 74.31660089 41.23828125 71.8515625 C38.32807036 67.50001687 36.207436 62.73325218 34 58 C33.35514209 56.6505751 32.70927266 55.30163321 32.0625 53.953125 C31.4158172 52.5941539 30.76997121 51.23478425 30.125 49.875 C29.81449707 49.22354004 29.50399414 48.57208008 29.18408203 47.90087891 C27 43.23269679 27 43.23269679 27 41 C26.34 41 25.68 41 25 41 C24.51080078 39.60974609 24.51080078 39.60974609 24.01171875 38.19140625 C23.57472656 36.99386719 23.13773438 35.79632813 22.6875 34.5625 C22.25824219 33.36753906 21.82898438 32.17257813 21.38671875 30.94140625 C20.92910156 29.97074219 20.47148437 29.00007813 20 28 C17.21382749 26.96448504 17.21382749 26.96448504 15.0625 26.75 C8.49341876 24.36124319 4.80517583 13.87885715 2 8 C1.0786767 5.2963788 0.49742501 2.81874171 0 0 Z " fill="#0A2144" transform="translate(9,46)"/>
<path d="M0 0 C0 0.66 0 1.32 0 2 C-0.66 2 -1.32 2 -2 2 C-2 5.96 -2 9.92 -2 14 C1.58458702 14.13487159 5.16411313 14.23405872 8.75 14.3125 C10.27367187 14.3753418 10.27367187 14.3753418 11.828125 14.43945312 C17.78036192 14.67925075 17.78036192 14.67925075 22.65625 11.65625 C23.97740562 9.04466331 24.66852934 6.90036824 25 4 C25.66 4.33 26.32 4.66 27 5 C27.92764816 9.38524585 27.93697927 12.66647087 27 17 C27.36856864 19.23167185 27.36856864 19.23167185 28 21 C28.66 19.68 29.32 18.36 30 17 C34.29 17.33 38.58 17.66 43 18 C42.34 18.66 41.68 19.32 41 20 C43.31 20.33 45.62 20.66 48 21 C47.34 22.32 46.68 23.64 46 25 C30.55279335 25.57846682 30.55279335 25.57846682 25 22 C23.0625 19.3125 23.0625 19.3125 22 17 C21.01 17.495 21.01 17.495 20 18 C16.71386604 18.23873623 13.41885417 18.18519014 10.125 18.1875 C9.21363281 18.19974609 8.30226562 18.21199219 7.36328125 18.22460938 C6.04263672 18.22750977 6.04263672 18.22750977 4.6953125 18.23046875 C3.89109863 18.23457764 3.08688477 18.23868652 2.25830078 18.24291992 C-0.29281366 17.96850275 -1.84349996 17.38122936 -4 16 C-6.29013653 12.5647952 -6.17842973 11.014669 -6 7 C-9.3 7.66 -12.6 8.32 -16 9 C-16 7.35 -16 5.7 -16 4 C-15.22914063 3.79503906 -14.45828125 3.59007813 -13.6640625 3.37890625 C-12.66117188 3.10949219 -11.65828125 2.84007813 -10.625 2.5625 C-9.62726563 2.29566406 -8.62953125 2.02882813 -7.6015625 1.75390625 C-1.5492228 0 -1.5492228 0 0 0 Z " fill="#092044" transform="translate(190,82)"/>
<path d="M0 0 C0.99 0.33 1.98 0.66 3 1 C9.81574013 2.75332445 17.02040004 2.15246699 24 2 C22.68 3.65 21.36 5.3 20 7 C21.3089572 10.12197478 21.3089572 10.12197478 24 12 C24 10.68 24 9.36 24 8 C32.415 9.485 32.415 9.485 41 11 C40.67 11.99 40.34 12.98 40 14 C41.65 13.67 43.3 13.34 45 13 C44.67 14.32 44.34 15.64 44 17 C38.70982828 18.26357605 34.48015281 17.64770569 29.25 16.625 C28.48300781 16.48578125 27.71601563 16.3465625 26.92578125 16.203125 C21.31622024 15.15811012 21.31622024 15.15811012 19 14 C18.67 13.01 18.34 12.02 18 11 C16.86820312 10.89042969 15.73640625 10.78085938 14.5703125 10.66796875 C13.08846436 10.50852939 11.60669744 10.34833382 10.125 10.1875 C9.37863281 10.11724609 8.63226563 10.04699219 7.86328125 9.97460938 C5.89448223 9.75289777 3.94363342 9.38420661 2 9 C-0.29013653 5.5647952 -0.17842973 4.014669 0 0 Z " fill="#0A2245" transform="translate(243,86)"/>
<path d="M0 0 C3.125 1.9375 3.125 1.9375 5 5 C5.56340411 9.12905753 4.91826317 12.51902067 2.71875 16.06640625 C0.10312779 19.26253645 -2.20884964 21.29768303 -6 23 C-8.7527517 16.43252132 -11.07443364 9.85618326 -13 3 C-8.80040863 -0.58060398 -5.36072478 -0.9807365 0 0 Z " fill="#214E81" transform="translate(68,44)"/>
<path d="M0 0 C1.99861692 1.80827245 3.01320127 3.03183835 4.0625 5.5625 C7.15674068 9.4552544 11.24658562 9.4110814 16 10 C17.5206413 10.16840979 19.04145611 10.335266 20.5625 10.5 C21.696875 10.665 22.83125 10.83 24 11 C24.33 11.66 24.66 12.32 25 13 C18.25 14 18.25 14 16 14 C17.45823212 14.0270043 18.91660675 14.04639787 20.375 14.0625 C21.59316406 14.07990234 21.59316406 14.07990234 22.8359375 14.09765625 C25.04937142 14.14466334 25.04937142 14.14466334 27 13 C27.33 13.99 27.66 14.98 28 16 C21.98062105 20.0129193 13.95904798 18.20372436 7.125 17 C2.74374966 15.89684508 0.16037057 14.90775083 -2.5 11.1875 C-4.13974512 7.8463652 -4.09302603 7.28424622 -2.875 3.5625 C-1 1 -1 1 0 0 Z " fill="#0D274E" transform="translate(295,90)"/>
<path d="M0 0 C6.18336092 1.64473237 11.39655866 4.92553087 16.875 8.125 C17.84953125 8.68832031 18.8240625 9.25164062 19.828125 9.83203125 C22.22161962 11.21650363 24.6120838 12.60593541 27 14 C25 15 25 15 21 15 C24.32534757 16.10844919 26.62182575 15.84454356 30 15 C29.67 15.99 29.34 16.98 29 18 C28.34 18 27.68 18 27 18 C27 18.66 27 19.32 27 20 C20.6604502 20.83055462 16.08969826 17.97078021 10.6875 15.0625 C9.30981445 14.38864258 9.30981445 14.38864258 7.90429688 13.70117188 C1.42521638 10.22938078 1.42521638 10.22938078 0.17431641 6.61279297 C-0.07897052 4.35708061 -0.15695896 2.26190751 0 0 Z " fill="#0A2246" transform="translate(140,85)"/>
<path d="M0 0 C-0.185625 1.11375 -0.37125 2.2275 -0.5625 3.375 C-1.31680657 6.82568861 -1.31680657 6.82568861 0 9 C2.41619823 9.25030977 2.41619823 9.25030977 5 9 C5.66 8.01 6.32 7.02 7 6 C7.66 6 8.32 6 9 6 C9.35671933 9.83473284 9.29771416 11.55342875 7.125 14.8125 C4.18803467 17.83584667 3.44742902 17.96391701 -0.875 18.3125 C-3.87411209 18.25797069 -4.87462264 18.07836085 -7.5 16.4375 C-9.59311615 13.03618625 -9.55147685 10.92927257 -9 7 C-6.83251009 3.63665359 -4.36122464 0 0 0 Z " fill="#255383" transform="translate(103,55)"/>
<path d="M0 0 C0.66 0 1.32 0 2 0 C2.15855469 0.73605469 2.31710938 1.47210938 2.48046875 2.23046875 C4.13384769 9.14542929 5.64489808 13.03245381 11.6796875 17.14453125 C17.46166084 20.53934132 23.41131239 20.78037708 30 21 C27.02923913 22.7081875 24.91851451 23.25188983 21.5 23.1875 C20.7471875 23.18105469 19.994375 23.17460938 19.21875 23.16796875 C17.04009857 23.00303563 15.09795189 22.59600906 13 22 C13 22.66 13 23.32 13 24 C18.94 24.99 18.94 24.99 25 26 C24.67 26.99 24.34 27.98 24 29 C22.45761734 28.88416889 20.91609728 28.75683428 19.375 28.625 C18.51648438 28.55539063 17.65796875 28.48578125 16.7734375 28.4140625 C13.48574095 27.9232233 11.00160819 27.48462292 8 26 C6.42857671 23.40595202 5.32883052 21.22205759 4.25 18.4375 C3.95416016 17.71747803 3.65832031 16.99745605 3.35351562 16.25561523 C1.34522499 11.24222229 -0.24688826 6.36592115 -1 1 C-0.67 0.67 -0.34 0.34 0 0 Z " fill="#0A2044" transform="translate(73,76)"/>
<path d="M0 0 C1.134375 0.928125 2.26875 1.85625 3.4375 2.8125 C7.6868591 6.02802576 11.88195226 7.64940407 17 9 C14.25002779 10.4731994 12.10380501 11.22404875 9 12 C13.29 12.33 17.58 12.66 22 13 C21.01 13.495 21.01 13.495 20 14 C20 14.66 20 15.32 20 16 C10.89255874 16.83215199 6.1742433 15.73939464 -1 10 C-0.67 6.7 -0.34 3.4 0 0 Z " fill="#0B244A" transform="translate(325,95)"/>
<path d="M0 0 C0.06058594 0.71027344 0.12117188 1.42054687 0.18359375 2.15234375 C0.26738281 3.07144531 0.35117188 3.99054688 0.4375 4.9375 C0.51871094 5.85402344 0.59992188 6.77054687 0.68359375 7.71484375 C0.76044976 9.96159732 0.76044976 9.96159732 2 11 C4.01964199 11.07244053 6.04167124 11.08377188 8.0625 11.0625 C9.16722656 11.05347656 10.27195312 11.04445313 11.41015625 11.03515625 C12.26480469 11.02355469 13.11945313 11.01195313 14 11 C10.65060119 13.02558881 8.13037449 13.21738987 4.25 13.125 C3.26515625 13.10695313 2.2803125 13.08890625 1.265625 13.0703125 C0.14414063 13.03550781 0.14414063 13.03550781 -1 13 C-1 11.02 -1 9.04 -1 7 C-1.66 7 -2.32 7 -3 7 C-2.81535634 11.34184202 -2.81535634 11.34184202 -1 15 C1.06526175 14.93499891 3.12840126 14.79717323 5.1875 14.625 C6.31542969 14.53476563 7.44335938 14.44453125 8.60546875 14.3515625 C11.76904012 14.0239199 14.8701975 13.56041987 18 13 C16.21844338 16.34041865 15.02416282 16.99166799 11.375 18.25 C6.94143682 19.14162064 2.48543455 19.83552212 -2 19 C-4.625 17 -4.625 17 -6 14 C-6.01045944 11.17072056 -5.56980866 8.80155927 -5 6 C-5.66 5.67 -6.32 5.34 -7 5 C-1.125 0 -1.125 0 0 0 Z " fill="#0B2349" transform="translate(117,88)"/>
<path d="M0 0 C-0.1953125 2.32421875 -0.1953125 2.32421875 -1 5 C-3.1796875 6.58203125 -3.1796875 6.58203125 -5.875 7.8125 C-7.20144531 8.44091797 -7.20144531 8.44091797 -8.5546875 9.08203125 C-11 10 -11 10 -14 10 C-14 9.34 -14 8.68 -14 8 C-15.546875 8.061875 -15.546875 8.061875 -17.125 8.125 C-20.86829627 8.00424851 -23.53734547 7.35127982 -27 6 C-26.67 5.01 -26.34 4.02 -26 3 C-25.47921875 3.16371094 -24.9584375 3.32742187 -24.421875 3.49609375 C-21.3243125 4.14058659 -18.41158906 4.09411589 -15.25 4.0625 C-14.07953125 4.05347656 -12.9090625 4.04445313 -11.703125 4.03515625 C-10.81109375 4.02355469 -9.9190625 4.01195313 -9 4 C-9 3.34 -9 2.68 -9 2 C-5.62902617 0.50178941 -3.79557881 0 0 0 Z " fill="#1B4980" transform="translate(112,94)"/>
<path d="M0 0 C1.051875 0.12375 2.10375 0.2475 3.1875 0.375 C3.1875 4.375 3.1875 4.375 1 6.953125 C0.071875 7.83484375 -0.85625 8.7165625 -1.8125 9.625 C-2.740625 10.51703125 -3.66875 11.4090625 -4.625 12.328125 C-5.346875 13.00359375 -6.06875 13.6790625 -6.8125 14.375 C-8.8125 12.375 -8.8125 12.375 -9.25 9.625 C-8.46792544 3.81530324 -5.89792214 0.58012349 0 0 Z " fill="#215086" transform="translate(258.8125,52.625)"/>
<path d="M0 0 C0 4.78138637 -0.83227012 5.384287 -4 8.75 C-5.11375 9.94882812 -5.11375 9.94882812 -6.25 11.171875 C-6.8275 11.77515625 -7.405 12.3784375 -8 13 C-8.99 12.67 -9.98 12.34 -11 12 C-11.4247346 7.6677071 -11.47048413 5.65037512 -8.875 2.0625 C-5.56851204 -0.30954571 -3.9760803 -0.46233492 0 0 Z " fill="#235285" transform="translate(178,51)"/>
<path d="M0 0 C6.93 0 13.86 0 21 0 C18 4 18 4 15.82348633 4.45410156 C15.00130615 4.4331543 14.17912598 4.41220703 13.33203125 4.390625 C12.43935547 4.37773438 11.54667969 4.36484375 10.62695312 4.3515625 C9.69818359 4.31804687 8.76941406 4.28453125 7.8125 4.25 C6.87212891 4.23195313 5.93175781 4.21390625 4.96289062 4.1953125 C2.64090111 4.1481655 0.3209631 4.08238231 -2 4 C-1.34 2.68 -0.68 1.36 0 0 Z " fill="#163D6E" transform="translate(192,93)"/>
<path d="M0 0 C0.66 0.33 1.32 0.66 2 1 C-3.0728218 7.29729602 -10.03393189 9.42428044 -17.875 10.5625 C-21.92815474 9.83293215 -23.42407317 8.12233555 -26 5 C-25.34 4.67 -24.68 4.34 -24 4 C-23.34 4.66 -22.68 5.32 -22 6 C-14.31538383 7.01494931 -7.94385887 4.10995148 -1 1 C-0.67 0.67 -0.34 0.34 0 0 Z " fill="#103063" transform="translate(75,111)"/>
<path d="M0 0 C1.4540625 0.0309375 1.4540625 0.0309375 2.9375 0.0625 C2.9375 1.3825 2.9375 2.7025 2.9375 4.0625 C1.9475 4.5575 1.9475 4.5575 0.9375 5.0625 C0.9375 8.6925 0.9375 12.3225 0.9375 16.0625 C-1.64016799 13.48483201 -1.54607599 11.60369318 -2.0625 8.0625 C-2.3925 7.4025 -2.7225 6.7425 -3.0625 6.0625 C-3.7225 6.0625 -4.3825 6.0625 -5.0625 6.0625 C-3.98897059 0.08140756 -3.98897059 0.08140756 0 0 Z " fill="#091E40" transform="translate(319.0625,65.9375)"/>
<path d="M0 0 C2.19050021 0.09017996 4.378466 0.24666208 6.5625 0.4375 C7.76003906 0.53933594 8.95757812 0.64117187 10.19140625 0.74609375 C11.11824219 0.82988281 12.04507813 0.91367188 13 1 C12.34 1.66 11.68 2.32 11 3 C12.65 3.33 14.3 3.66 16 4 C16 4.33 16 4.66 16 5 C10.72 5 5.44 5 0 5 C-0.33 3.68 -0.66 2.36 -1 1 C-0.67 0.67 -0.34 0.34 0 0 Z " fill="#1A477D" transform="translate(220,99)"/>
<path d="M0 0 C3.22744136 2.77805079 5.15817545 6.35424865 7.25 10 C7.81460937 10.94359375 7.81460937 10.94359375 8.390625 11.90625 C9.34315521 13.55917007 10.1801215 15.27742699 11 17 C10.67 17.99 10.34 18.98 10 20 C3.84013701 14.72011744 1.64966635 7.69844296 0 0 Z " fill="#0D284F" transform="translate(9,46)"/>
<path d="M0 0 C-0.0625 2.25 -0.0625 2.25 -1 5 C-3.13108758 6.84962319 -5.33880183 8.06998127 -8 9 C-10.9375 8.75 -10.9375 8.75 -13 8 C-10.68143083 6.45428722 -8.49361571 5.20381448 -6 4 C-6.99 3.34 -7.98 2.68 -9 2 C-5.62902617 0.50178941 -3.79557881 0 0 0 Z " fill="#153B6A" transform="translate(112,94)"/>
<path d="M0 0 C2.64 0.33 5.28 0.66 8 1 C7.67 2.65 7.34 4.3 7 6 C4.69 6.66 2.38 7.32 0 8 C-1.125 2.25 -1.125 2.25 0 0 Z " fill="#092043" transform="translate(348,68)"/>
<path d="M0 0 C5.28 0.66 10.56 1.32 16 2 C15.67 2.99 15.34 3.98 15 5 C4.44191344 4.22095672 4.44191344 4.22095672 0 2 C0 1.34 0 0.68 0 0 Z " fill="#0E2A53" transform="translate(82,100)"/>
<path d="M0 0 C4.62 0 9.24 0 14 0 C13.01 1.485 13.01 1.485 12 3 C8.9609375 3.29296875 8.9609375 3.29296875 5.375 3.1875 C4.18648437 3.16042969 2.99796875 3.13335937 1.7734375 3.10546875 C0.85820312 3.07066406 -0.05703125 3.03585938 -1 3 C-0.67 2.01 -0.34 1.02 0 0 Z " fill="#081E41" transform="translate(191,97)"/>
<path d="M0 0 C-0.99 1.485 -0.99 1.485 -2 3 C-4.8203125 3.29296875 -4.8203125 3.29296875 -8.125 3.1875 C-9.76855469 3.14689453 -9.76855469 3.14689453 -11.4453125 3.10546875 C-12.70988281 3.05326172 -12.70988281 3.05326172 -14 3 C-13.67 2.01 -13.34 1.02 -13 0 C-11.20909747 -0.19466332 -9.41723495 -0.38051213 -7.625 -0.5625 C-6.12839844 -0.71912109 -6.12839844 -0.71912109 -4.6015625 -0.87890625 C-2 -1 -2 -1 0 0 Z " fill="#0D2950" transform="translate(238,104)"/>
<path d="M0 0 C0 2.64 0 5.28 0 8 C-0.66 7.67 -1.32 7.34 -2 7 C-2 5.02 -2 3.04 -2 1 C-5.3 1.66 -8.6 2.32 -12 3 C-11.34 2.67 -10.68 2.34 -10 2 C-10 1.34 -10 0.68 -10 0 C-6.30581799 -1.231394 -3.7943739 -0.64432764 0 0 Z " fill="#113562" transform="translate(186,88)"/>
<path d="M0 0 C2.50037734 2.17424117 3.43628586 3.73045798 4 7 C3.01 6.67 2.02 6.34 1 6 C0.67 7.32 0.34 8.64 0 10 C-1.625 8.3125 -1.625 8.3125 -3 6 C-2.33228817 3.60736593 -1.77902615 1.77902615 0 0 Z " fill="#092044" transform="translate(295,90)"/>
<path d="M0 0 C0.66 0.33 1.32 0.66 2 1 C-1.81514686 6.36505028 -4.7076835 8.08031022 -11 10 C-11 8.68 -11 7.36 -11 6 C-10.45730469 5.81824219 -9.91460937 5.63648437 -9.35546875 5.44921875 C-8.28232422 5.07216797 -8.28232422 5.07216797 -7.1875 4.6875 C-6.47980469 4.44386719 -5.77210938 4.20023437 -5.04296875 3.94921875 C-2.85527627 2.93275742 -1.59103282 1.79179406 0 0 Z " fill="#143B6B" transform="translate(356,101)"/>
<path d="M0 0 C2.97 0 5.94 0 9 0 C8.67 1.32 8.34 2.64 8 4 C6.02 4.33 4.04 4.66 2 5 C1.34 3.35 0.68 1.7 0 0 Z " fill="#0E2A52" transform="translate(279,99)"/>
<path d="M0 0 C0 0.99 0 1.98 0 3 C-0.66 3 -1.32 3 -2 3 C-2 3.66 -2 4.32 -2 5 C-4.875 5.125 -4.875 5.125 -8 5 C-8.66 4.34 -9.32 3.68 -10 3 C-6.68885166 1.87119943 -3.41021743 0.78697325 0 0 Z " fill="#0F2E57" transform="translate(169,100)"/>
<path d="M0 0 C4.29 0.33 8.58 0.66 13 1 C13 1.33 13 1.66 13 2 C8.38 2.33 3.76 2.66 -1 3 C-0.67 2.01 -0.34 1.02 0 0 Z " fill="#0A2246" transform="translate(220,99)"/>
<path d="M0 0 C0.66 0 1.32 0 2 0 C2.66 0.66 3.32 1.32 4 2 C5.98356483 2.71408334 7.98315437 3.38617742 10 4 C10 4.66 10 5.32 10 6 C6.6875 5.8125 6.6875 5.8125 3 5 C1.0625 2.4375 1.0625 2.4375 0 0 Z " fill="#133663" transform="translate(49,115)"/>
<path d="M0 0 C3 1 3 1 5 4 C5 4.99 5 5.98 5 7 C5.66 7.33 6.32 7.66 7 8 C3.74456771 7.65120368 2.98126893 6.97866739 0.75 4.4375 C-0.11625 3.2309375 -0.11625 3.2309375 -1 2 C-0.67 1.34 -0.34 0.68 0 0 Z " fill="#071C3B" transform="translate(19,65)"/>
<path d="M0 0 C0.66 0.33 1.32 0.66 2 1 C2 4.3 2 7.6 2 11 C1.34 11 0.68 11 0 11 C-0.66 9.35 -1.32 7.7 -2 6 C-1.34 6 -0.68 6 0 6 C0 4.02 0 2.04 0 0 Z " fill="#123463" transform="translate(186,23)"/>
<path d="M0 0 C1.65 0 3.3 0 5 0 C4.6875 1.875 4.6875 1.875 4 4 C1 6 1 6 -1.1875 5.625 C-1.785625 5.41875 -2.38375 5.2125 -3 5 C-2.01 4.67 -1.02 4.34 0 4 C0 2.68 0 1.36 0 0 Z " fill="#174377" transform="translate(134,98)"/>
<path d="M0 0 C0.33 0.99 0.66 1.98 1 3 C2.65 3 4.3 3 6 3 C6 3.99 6 4.98 6 6 C1.545 5.01 1.545 5.01 -3 4 C-2.01 2.68 -1.02 1.36 0 0 Z " fill="#0C2449" transform="translate(108,40)"/>
<path d="M0 0 C0.66 0.33 1.32 0.66 2 1 C4.04055005 1.07065617 6.08334257 1.08421976 8.125 1.0625 C9.22070312 1.05347656 10.31640625 1.04445313 11.4453125 1.03515625 C12.28835937 1.02355469 13.13140625 1.01195313 14 1 C10.65060119 3.02558881 8.13037449 3.21738987 4.25 3.125 C3.26515625 3.10695313 2.2803125 3.08890625 1.265625 3.0703125 C0.14414063 3.03550781 0.14414063 3.03550781 -1 3 C-0.67 2.01 -0.34 1.02 0 0 Z " fill="#0C264C" transform="translate(117,98)"/>
<path d="M0 0 C2.97 0.33 5.94 0.66 9 1 C7.515 2.485 7.515 2.485 6 4 C4.68 4 3.36 4 2 4 C2 3.34 2 2.68 2 2 C1.34 1.34 0.68 0.68 0 0 Z " fill="#173F71" transform="translate(281,96)"/>
<path d="M0 0 C1.5 1.1875 1.5 1.1875 3 3 C3.1875 5.6875 3.1875 5.6875 3 8 C0.9375 6.25 0.9375 6.25 -1 4 C-0.75 1.75 -0.75 1.75 0 0 Z " fill="#092042" transform="translate(278,60)"/>
<path d="M0 0 C2.625 -0.1875 2.625 -0.1875 5 0 C5 0.99 5 1.98 5 3 C2.69 3 0.38 3 -2 3 C-1.34 2.01 -0.68 1.02 0 0 Z " fill="#10315B" transform="translate(205,97)"/>
<path d="M0 0 C0.66 0.33 1.32 0.66 2 1 C0.35 2.65 -1.3 4.3 -3 6 C-4.32 5.34 -5.64 4.68 -7 4 C-1.7265625 0.77734375 -1.7265625 0.77734375 0 0 Z " fill="#0C274F" transform="translate(75,111)"/>
</svg>
